<?xml version="1.0" encoding="UTF-8"?> <svg xmlns="http://www.w3.org/2000/svg" width="241.515" height="56.688" viewBox="0 0 241.515 56.688"> <g id="Group_10" data-name="Group 10" transform="translate(-127.459 -684.233)"> <path id="Path_5" data-name="Path 5" d="M155.785,684.233a28.344,28.344,0,1,0,28.326,28.343A28.334,28.334,0,0,0,155.785,684.233Zm0,52.222A23.88,23.88,0,1,1,179.9,712.577,24,24,0,0,1,155.785,736.455Z" transform="translate(0 0)" fill="#0077b3"></path> <g id="Group_3" data-name="Group 3" transform="translate(142.491 696.181)"> <path id="Path_6" data-name="Path 6" d="M162.753,713.955l14.036,19.827h-7.18l-10.84-15.8-4.725,4.725v11.072H148.3V700.8h5.744v14.964L168.636,700.8h7.32Z" transform="translate(-148.299 -700.798)" fill="#0077b3"></path> </g> <g id="Group_4" data-name="Group 4" transform="translate(188.685 699.855)"> <path id="Path_7" data-name="Path 7" d="M229.82,710.452H217.774V716.2h10.479v4.316H217.774V730.68h-5.431V705.891H229.82Z" transform="translate(-212.343 -705.891)" fill="#087ab4"></path> <path id="Path_8" data-name="Path 8" d="M255.173,733.316h-4.7v-2.542a6.687,6.687,0,0,1-5.849,3.064c-3.865,0-6.267-2.124-6.267-6.406V715.352h4.978v10.27c0,2.263.209,4.074,3.029,4.074,3.1,0,3.9-2.367,3.9-5.083v-9.261h4.91Z" transform="translate(-219.593 -708.528)" fill="#087ab4"></path> <path id="Path_9" data-name="Path 9" d="M276.921,733.128v-10.48c0-2.228-.418-3.9-3.063-3.9-2.96,0-3.9,2.123-3.9,4.735v9.644h-4.908V715.164h4.7v2.507a7.1,7.1,0,0,1,5.954-2.995c3.795,0,6.231,2.263,6.231,6.441v12.011Z" transform="translate(-227.033 -708.339)" fill="#087ab4"></path> <path id="Path_10" data-name="Path 10" d="M304.256,730.68v-2.3a5.981,5.981,0,0,1-5.431,2.786c-4.979,0-8.147-3.726-8.147-9.54,0-5.674,3.1-9.4,7.868-9.4a6.344,6.344,0,0,1,5.467,2.716v-9.052h4.908V730.68ZM299.9,716.127c-2.68,0-4.246,2.054-4.246,5.5,0,3.482,1.6,5.571,4.246,5.571,2.716,0,4.283-2.019,4.283-5.536C304.186,718.181,302.585,716.127,299.9,716.127Z" transform="translate(-234.176 -705.891)" fill="#087ab4"></path> </g> <g id="Group_8" data-name="Group 8" transform="translate(188.762 730.179)"> <path id="Path_54" data-name="Path 54" d="M217.869,748.615h-4.674v2.821h4.378v.625h-4.378v3.094h4.719v.636h-5.464v-7.812h5.42Z" transform="translate(-212.449 -747.946)" fill="#087ab4"></path> <path id="Path_55" data-name="Path 55" d="M222.539,752a2.083,2.083,0,0,1,2-1.218,1.776,1.776,0,0,1,1.953,1.953v3.841H225.8v-3.622c0-1.163-.581-1.569-1.438-1.569-1.032,0-1.778.681-1.778,2.14v3.05h-.691v-5.641h.648Z" transform="translate(-215.081 -748.726)" fill="#087ab4"></path> <path id="Path_56" data-name="Path 56" d="M232.685,750.885h-1.163v3.577c0,.57-.022.943.713.943a4.009,4.009,0,0,0,.45-.033v.593a3.885,3.885,0,0,1-.6.044c-.494,0-1.042-.1-1.174-.648a5.09,5.09,0,0,1-.066-1.24v-3.236h-1v-.561h1V748.6h.681v1.722h1.163Z" transform="translate(-217.297 -748.119)" fill="#087ab4"></path> <path id="Path_57" data-name="Path 57" d="M238.694,751.571c-.076,0-.143-.011-.187-.011a1.829,1.829,0,0,0-1.8,1.339,5.085,5.085,0,0,0-.132,1.393v2.3h-.68v-5.641h.648v1.35a2.07,2.07,0,0,1,2.151-1.438Z" transform="translate(-218.984 -748.751)" fill="#087ab4"></path> <path id="Path_58" data-name="Path 58" d="M243.061,756.757c-1.57,0-2.59-1.152-2.59-2.941s1.065-3.04,2.579-3.04c1.668,0,2.48,1.383,2.48,2.941v.2h-4.356c0,1.185.548,2.283,1.909,2.283a1.674,1.674,0,0,0,1.723-1.482h.669A2.321,2.321,0,0,1,243.061,756.757Zm-.033-5.41c-1.229,0-1.722.955-1.854,2.009h3.665C244.763,752.1,244.082,751.348,243.028,751.348Z" transform="translate(-220.259 -748.726)" fill="#087ab4"></path> <path id="Path_59" data-name="Path 59" d="M250.068,752.013a2.083,2.083,0,0,1,2.02-1.251c1.536,0,2.545,1.2,2.545,3.007,0,1.788-1.009,2.974-2.524,2.974a2.067,2.067,0,0,1-2-1.219v3.149h-.67v-7.747h.625Zm.022,1.745c0,1.482.747,2.4,1.931,2.4,1.153,0,1.91-.944,1.91-2.392,0-1.482-.747-2.437-1.932-2.437S250.091,752.243,250.091,753.758Z" transform="translate(-222.76 -748.721)" fill="#087ab4"></path> <path id="Path_60" data-name="Path 60" d="M261.655,751.571c-.076,0-.143-.011-.187-.011a1.829,1.829,0,0,0-1.8,1.339,5.087,5.087,0,0,0-.132,1.393v2.3h-.68v-5.641h.648v1.35a2.07,2.07,0,0,1,2.151-1.438Z" transform="translate(-225.383 -748.751)" fill="#087ab4"></path> <path id="Path_61" data-name="Path 61" d="M266.022,756.757c-1.57,0-2.59-1.152-2.59-2.941s1.065-3.04,2.579-3.04c1.668,0,2.48,1.383,2.48,2.941v.2h-4.356c0,1.185.548,2.283,1.908,2.283a1.674,1.674,0,0,0,1.723-1.482h.669A2.321,2.321,0,0,1,266.022,756.757Zm-.033-5.41c-1.229,0-1.723.955-1.854,2.009H267.8C267.723,752.1,267.043,751.348,265.989,751.348Z" transform="translate(-226.658 -748.726)" fill="#087ab4"></path> <path id="Path_62" data-name="Path 62" d="M273.006,752a2.083,2.083,0,0,1,2-1.218,1.777,1.777,0,0,1,1.953,1.953v3.841h-.692v-3.622c0-1.163-.581-1.569-1.437-1.569-1.032,0-1.778.681-1.778,2.14v3.05h-.691v-5.641h.647Z" transform="translate(-229.146 -748.726)" fill="#087ab4"></path> <path id="Path_63" data-name="Path 63" d="M283.3,756.757c-1.569,0-2.589-1.152-2.589-2.941s1.064-3.04,2.578-3.04c1.668,0,2.48,1.383,2.48,2.941v.2h-4.357c0,1.185.549,2.283,1.91,2.283a1.674,1.674,0,0,0,1.722-1.482h.669A2.321,2.321,0,0,1,283.3,756.757Zm-.032-5.41c-1.23,0-1.723.955-1.855,2.009h3.666C285,752.1,284.318,751.348,283.264,751.348Z" transform="translate(-231.473 -748.726)" fill="#087ab4"></path> <path id="Path_64" data-name="Path 64" d="M294.183,756.631h-.637v-1.043a2.054,2.054,0,0,1-1.986,1.208,1.816,1.816,0,0,1-1.942-2.052V750.99h.692v3.456c0,1.109.339,1.745,1.426,1.745a1.854,1.854,0,0,0,1.767-2.085V750.99h.68Z" transform="translate(-233.957 -748.785)" fill="#087ab4"></path> <path id="Path_65" data-name="Path 65" d="M301.327,751.571c-.077,0-.143-.011-.187-.011a1.829,1.829,0,0,0-1.8,1.339,5.088,5.088,0,0,0-.132,1.393v2.3h-.68v-5.641h.647v1.35a2.072,2.072,0,0,1,2.152-1.438Z" transform="translate(-236.44 -748.751)" fill="#087ab4"></path> <path id="Path_66" data-name="Path 66" d="M307.065,752.577c-.066-.855-.615-1.229-1.526-1.229-.811,0-1.317.362-1.317.933,0,.7.549.824,1.614,1.065.922.208,2.1.493,2.1,1.668,0,1.032-.9,1.735-2.238,1.735-1.448,0-2.283-.725-2.315-2.02h.669c0,.944.625,1.448,1.668,1.448.921,0,1.536-.439,1.536-1.1,0-.79-.956-.966-1.548-1.109-.922-.219-2.173-.362-2.173-1.6,0-.987.79-1.591,2.074-1.591,1.24,0,2.129.593,2.129,1.8Z" transform="translate(-237.792 -748.726)" fill="#087ab4"></path> <path id="Path_67" data-name="Path 67" d="M312.4,751.216a2,2,0,0,1,1.953-1.207,1.81,1.81,0,0,1,1.975,2.052v3.731h-.691v-3.643c0-.966-.45-1.558-1.449-1.558-1.283,0-1.777,1.009-1.777,2.228v2.973h-.681v-7.812h.681C312.408,751.391,312.408,750.788,312.4,751.216Z" transform="translate(-240.119 -747.946)" fill="#087ab4"></path> <path id="Path_68" data-name="Path 68" d="M321.207,749.063h-.692v-1.13h.692Zm0,6.716h-.692v-5.641h.692Z" transform="translate(-242.568 -747.933)" fill="#087ab4"></path> <path id="Path_69" data-name="Path 69" d="M324.592,752.013a2.082,2.082,0,0,1,2.019-1.251c1.536,0,2.546,1.2,2.546,3.007,0,1.788-1.01,2.974-2.524,2.974a2.067,2.067,0,0,1-2-1.219v3.149h-.67v-7.747h.626Zm.022,1.745c0,1.482.746,2.4,1.931,2.4,1.152,0,1.909-.944,1.909-2.392,0-1.482-.746-2.437-1.932-2.437S324.614,752.243,324.614,753.758Z" transform="translate(-243.53 -748.721)" fill="#087ab4"></path> <path id="Path_70" data-name="Path 70" d="M342.923,756.539a1.574,1.574,0,0,1-.548.087c-.67,0-.736-.516-.736-1.031a2.359,2.359,0,0,1-2.129,1.13c-1.152,0-1.844-.592-1.844-1.58,0-1.031.7-1.6,2.1-1.745a4.26,4.26,0,0,0,1.646-.3c.142-.1.2-.253.2-.538,0-.933-.571-1.218-1.471-1.218a1.329,1.329,0,0,0-1.536,1.328h-.659c.056-1.207.878-1.9,2.272-1.9,1.273,0,2.074.56,2.074,1.624v3.072c0,.34-.012.571.373.571a.81.81,0,0,0,.263-.033Zm-2.853-2.645c-.713.1-1.679.263-1.679,1.185,0,.658.5,1.075,1.295,1.075a1.777,1.777,0,0,0,1.921-1.733V753.5C341.387,753.74,340.827,753.795,340.07,753.894Z" transform="translate(-247.348 -748.726)" fill="#087ab4"></path> <path id="Path_71" data-name="Path 71" d="M347.241,752a2.082,2.082,0,0,1,2-1.218,1.776,1.776,0,0,1,1.953,1.953v3.841H350.5v-3.622c0-1.163-.581-1.569-1.437-1.569-1.031,0-1.778.681-1.778,2.14v3.05h-.691v-5.641h.648Z" transform="translate(-249.836 -748.726)" fill="#087ab4"></path> <path id="Path_72" data-name="Path 72" d="M360.233,755.791h-.625v-1.109a2.045,2.045,0,0,1-2.03,1.273c-1.558,0-2.545-1.153-2.545-2.985,0-1.81.987-2.985,2.524-2.985a2.056,2.056,0,0,1,2.008,1.218v-3.226h.669Zm-4.51-2.831c0,1.492.747,2.436,1.921,2.436,1.207,0,1.942-.922,1.942-2.425,0-1.218-.571-2.414-1.953-2.414C356.47,750.557,355.723,751.5,355.723,752.96Z" transform="translate(-252.188 -747.946)" fill="#087ab4"></path> <path id="Path_73" data-name="Path 73" d="M373.113,747.979c1.459,0,2.457.734,2.457,2.194a2.18,2.18,0,0,1-2.479,2.283h-2.579v3.335h-.747v-7.812Zm-2.6,3.851h2.371c1.075,0,1.942-.439,1.942-1.6,0-1.119-.746-1.613-1.865-1.613h-2.447Z" transform="translate(-256.295 -747.946)" fill="#087ab4"></path> <path id="Path_74" data-name="Path 74" d="M382.647,751.571c-.076,0-.143-.011-.187-.011a1.829,1.829,0,0,0-1.8,1.339,5.091,5.091,0,0,0-.131,1.393v2.3h-.681v-5.641h.648v1.35a2.07,2.07,0,0,1,2.151-1.438Z" transform="translate(-259.104 -748.751)" fill="#087ab4"></path> <path id="Path_75" data-name="Path 75" d="M389.8,753.769c0,1.821-1.021,2.962-2.656,2.962s-2.688-1.163-2.688-2.985a2.668,2.668,0,0,1,2.688-2.985C388.768,750.762,389.8,751.925,389.8,753.769Zm-4.642-.022c0,1.481.757,2.414,2,2.414,1.2,0,1.953-.933,1.953-2.4s-.769-2.414-1.975-2.414S385.158,752.288,385.158,753.747Z" transform="translate(-260.389 -748.721)" fill="#087ab4"></path> <path id="Path_76" data-name="Path 76" d="M398.6,756.264a2.242,2.242,0,0,1-2.524,2.524c-1.371,0-2.217-.615-2.293-1.7h.691c.11.78.659,1.164,1.635,1.164,1.394,0,1.844-.757,1.844-2.041v-.944A2.006,2.006,0,0,1,396,756.506c-1.492,0-2.447-1.1-2.447-2.8,0-1.766,1-2.93,2.5-2.93A2.02,2.02,0,0,1,397.97,752v-1.065h.625Zm-4.357-2.612c0,1.383.714,2.26,1.822,2.26,1.153,0,1.876-.9,1.876-2.338,0-1.338-.723-2.205-1.854-2.205S394.239,752.247,394.239,753.652Z" transform="translate(-262.923 -748.726)" fill="#087ab4"></path> <path id="Path_77" data-name="Path 77" d="M405.9,751.571c-.077,0-.143-.011-.187-.011a1.829,1.829,0,0,0-1.8,1.339,5.1,5.1,0,0,0-.131,1.393v2.3H403.1v-5.641h.648v1.35a2.07,2.07,0,0,1,2.151-1.438Z" transform="translate(-265.584 -748.751)" fill="#087ab4"></path> <path id="Path_78" data-name="Path 78" d="M413.2,756.539a1.571,1.571,0,0,1-.548.087c-.67,0-.735-.516-.735-1.031a2.36,2.36,0,0,1-2.129,1.13c-1.153,0-1.844-.592-1.844-1.58,0-1.031.7-1.6,2.1-1.745a4.257,4.257,0,0,0,1.646-.3c.143-.1.2-.253.2-.538,0-.933-.571-1.218-1.47-1.218a1.329,1.329,0,0,0-1.536,1.328h-.659c.055-1.207.878-1.9,2.271-1.9,1.273,0,2.074.56,2.074,1.624v3.072c0,.34-.011.571.374.571a.808.808,0,0,0,.263-.033Zm-2.853-2.645c-.713.1-1.678.263-1.678,1.185,0,.658.5,1.075,1.295,1.075a1.777,1.777,0,0,0,1.92-1.733V753.5C411.668,753.74,411.109,753.795,410.351,753.894Z" transform="translate(-266.936 -748.726)" fill="#087ab4"></path> <path id="Path_79" data-name="Path 79" d="M417.537,751.918a2.078,2.078,0,0,1,1.876-1.141,1.553,1.553,0,0,1,1.614,1.1,2.014,2.014,0,0,1,1.876-1.1,1.661,1.661,0,0,1,1.81,1.767v4.027h-.691V752.73a1.181,1.181,0,0,0-1.306-1.339,1.52,1.52,0,0,0-1.568,1.723v3.456h-.681v-3.785c0-.856-.33-1.394-1.24-1.394-1.152,0-1.646.878-1.646,1.975v3.2h-.692v-5.641h.648Z" transform="translate(-269.428 -748.726)" fill="#087ab4"></path> <path id="Path_80" data-name="Path 80" d="M430.811,751.918a2.078,2.078,0,0,1,1.877-1.141,1.552,1.552,0,0,1,1.613,1.1,2.015,2.015,0,0,1,1.877-1.1,1.66,1.66,0,0,1,1.81,1.767v4.027H437.3V752.73a1.181,1.181,0,0,0-1.306-1.339,1.52,1.52,0,0,0-1.569,1.723v3.456h-.68v-3.785c0-.856-.33-1.394-1.241-1.394-1.152,0-1.645.878-1.645,1.975v3.2h-.692v-5.641h.647Z" transform="translate(-273.128 -748.726)" fill="#087ab4"></path> <path id="Path_81" data-name="Path 81" d="M444.131,749.063h-.692v-1.13h.692Zm0,6.716h-.692v-5.641h.692Z" transform="translate(-276.828 -747.933)" fill="#087ab4"></path> <path id="Path_82" data-name="Path 82" d="M447.493,752a2.082,2.082,0,0,1,2-1.218,1.776,1.776,0,0,1,1.953,1.953v3.841h-.692v-3.622c0-1.163-.581-1.569-1.437-1.569-1.031,0-1.778.681-1.778,2.14v3.05h-.691v-5.641h.648Z" transform="translate(-277.777 -748.726)" fill="#087ab4"></path> <path id="Path_83" data-name="Path 83" d="M460.3,756.264a2.242,2.242,0,0,1-2.524,2.524c-1.372,0-2.217-.615-2.294-1.7h.691c.11.78.659,1.164,1.635,1.164,1.394,0,1.844-.757,1.844-2.041v-.944a2.006,2.006,0,0,1-1.953,1.241c-1.492,0-2.447-1.1-2.447-2.8,0-1.766,1-2.93,2.5-2.93a2.02,2.02,0,0,1,1.92,1.218v-1.065h.626Zm-4.357-2.612c0,1.383.713,2.26,1.821,2.26,1.153,0,1.876-.9,1.876-2.338,0-1.338-.723-2.205-1.854-2.205S455.945,752.247,455.945,753.652Z" transform="translate(-280.121 -748.726)" fill="#087ab4"></path> </g> <g id="Group_9" data-name="Group 9" transform="translate(267.505 698.235)"> <path id="Path_84" data-name="Path 84" d="M338.538,711.632c-.219-3.938-2.991-5.907-7.219-5.907-4.084,0-6.491,1.787-6.491,4.887,0,3.391,2.881,4.01,7,4.922,5.725,1.24,9.918,2.333,9.918,7.511,0,5.615-4.959,7.62-9.772,7.62-6.453,0-10.355-3.354-10.355-8.9v-.219h2.37c0,4.813,3.208,7.11,8.167,7.11,4.485,0,7.22-2.005,7.22-5.359,0-3.5-2.735-4.3-8.788-5.725-3.974-.912-8.131-1.823-8.131-6.818,0-4.376,3.464-7.111,9.043-7.111,5.47,0,9.189,2.626,9.445,7.986Z" transform="translate(-321.619 -703.646)" fill="#67686b"></path> <path id="Path_85" data-name="Path 85" d="M360.98,733.44c-5.251,0-8.679-3.828-8.679-9.735,0-6.125,3.464-10.1,8.751-10.1,4.339,0,7.183,2.407,7.694,6.455h-2.333c-.583-2.954-2.443-4.559-5.324-4.559-3.938,0-6.417,3.136-6.417,8.021s2.406,8.023,6.2,8.023c3.136,0,5.252-1.97,5.726-5.361h2.3C368.272,730.451,365.5,733.44,360.98,733.44Z" transform="translate(-330.17 -706.422)" fill="#67686b"></path> <path id="Path_86" data-name="Path 86" d="M380.963,715.111a6.636,6.636,0,0,1,6.49-4.011c4.375,0,6.564,2.516,6.564,6.818v12.4h-2.3V718.21c0-3.208-1.495-5.177-4.813-5.177-4.266,0-5.907,3.355-5.907,7.4v9.882h-2.261V704.354H381C381,715.694,381,713.689,380.963,715.111Z" transform="translate(-337.539 -703.843)" fill="#67686b"></path> <path id="Path_87" data-name="Path 87" d="M421.314,723.6c0,6.053-3.391,9.844-8.823,9.844-5.47,0-8.934-3.865-8.934-9.918,0-6.016,3.5-9.918,8.934-9.918C417.887,713.6,421.314,717.47,421.314,723.6Zm-15.423-.073c0,4.924,2.516,8.023,6.636,8.023,3.975,0,6.491-3.1,6.491-7.986s-2.553-8.021-6.564-8.021C408.479,715.538,405.891,718.674,405.891,723.523Z" transform="translate(-344.456 -706.422)" fill="#67686b"></path> <path id="Path_88" data-name="Path 88" d="M448.409,723.6c0,6.053-3.391,9.844-8.824,9.844-5.47,0-8.934-3.865-8.934-9.918,0-6.016,3.5-9.918,8.934-9.918C444.982,713.6,448.409,717.47,448.409,723.6Zm-15.424-.073c0,4.924,2.517,8.023,6.637,8.023,3.974,0,6.491-3.1,6.491-7.986s-2.553-8.021-6.564-8.021C435.574,715.538,432.985,718.674,432.985,723.523Z" transform="translate(-352.007 -706.422)" fill="#67686b"></path> <path id="Path_89" data-name="Path 89" d="M461.422,730.316h-2.261V704.354h2.261Z" transform="translate(-359.953 -703.843)" fill="#67686b"></path> </g> </g> </svg> 